<svg width="296" height="143" viewBox="0 0 296 143" fill="none" xmlns="http://www.w3.org/2000/svg">
<rect x="0.5" y="0.5" width="286" height="142" rx="19.5" stroke="black"/>
<rect x="3" y="3" width="148" height="137" rx="20" fill="black"/>
<path d="M289 61C289.919 61 290.83 61.2845 291.679 61.8373C292.528 62.3901 293.3 63.2004 293.95 64.2218C294.6 65.2433 295.115 66.4559 295.467 67.7905C295.819 69.1251 296 70.5555 296 72C296 73.4445 295.819 74.8749 295.467 76.2095C295.115 77.5441 294.6 78.7567 293.95 79.7782C293.3 80.7996 292.528 81.6099 291.679 82.1627C290.829 82.7155 289.919 83 289 83L289 72L289 61Z" fill="black"/>
</svg>
