<svg width="387" height="270" viewBox="0 0 387 270" fill="none" xmlns="http://www.w3.org/2000/svg">
<rect x="6.5" y="151.5" width="374" height="112" rx="56" stroke="black" stroke-width="13"/>
<rect x="23" y="167" width="82" height="82" rx="41" fill="black"/>
<path fill-rule="evenodd" clip-rule="evenodd" d="M62.5 0C27.9822 0 0 27.9822 0 62.5C0 97.0178 27.9822 125 62.5 125H324.5C359.018 125 387 97.0178 387 62.5C387 27.9822 359.018 0 324.5 0H62.5ZM323 22C300.356 22 282 40.3563 282 63C282 85.6437 300.356 104 323 104C345.644 104 364 85.6437 364 63C364 40.3563 345.644 22 323 22Z" fill="black"/>
</svg>
