<svg width="261" height="248" viewBox="0 0 261 248" fill="none" xmlns="http://www.w3.org/2000/svg">
<path d="M101.155 99.1551C105.009 95.3014 109.584 92.2446 114.619 90.159C119.654 88.0734 125.05 87 130.5 87C135.95 87 141.346 88.0734 146.381 90.159C151.416 92.2446 155.991 95.3014 159.845 99.1551L130.5 128.5L101.155 99.1551Z" fill="black"/>
<path d="M67.2139 65.8959C75.5248 58.0029 85.3912 51.7419 96.2498 47.4702C107.108 43.1986 118.747 41 130.5 41C142.253 41 153.892 43.1986 164.75 47.4702C175.609 51.7419 185.475 58.003 193.786 65.8959L174.578 84.1382C168.79 78.6408 161.918 74.2801 154.355 71.3049C146.792 68.3298 138.686 66.7985 130.5 66.7985C122.314 66.7985 114.208 68.3298 106.645 71.3049C99.0822 74.2801 92.2104 78.6408 86.422 84.1382L67.2139 65.8959Z" fill="black"/>
<path d="M38.2226 36.3188C50.3406 24.8043 64.7268 15.6705 80.5598 9.43894C96.3928 3.20735 113.363 -2.13538e-06 130.5 0C147.638 2.13538e-06 164.607 3.20736 180.44 9.43895C196.273 15.6705 210.659 24.8043 222.777 36.3188L208.738 49.6594C198.463 39.8968 186.266 32.1527 172.842 26.8692C159.418 21.5858 145.03 18.8664 130.5 18.8664C115.97 18.8664 101.582 21.5858 88.1581 26.8692C74.7341 32.1527 62.5367 39.8968 52.2624 49.6593L38.2226 36.3188Z" fill="black"/>
</svg>
